<svg width="1584" height="396" viewBox="0 0 1584 396" fill="none" xmlns="http://www.w3.org/2000/svg">
<rect width="1584" height="396" fill="#F5F5F5"/>
<g id="Awesome banner" clip-path="url(#clip0_0_1)">
<rect width="1584" height="396" fill="url(#paint0_linear_0_1)"/>
<ellipse id="Ellipse 2" cx="323" cy="64" rx="285" ry="288" fill="url(#paint1_linear_0_1)" fill-opacity="0.1"/>
<g id="copyright">
<path d="M75.95 334.52L72.30 334.52L72.30 311.16L77.20 311.16L83.70 330.04Q83.60 329.02 83.50 327.62Q83.41 326.23 83.33 324.79Q83.25 323.35 83.25 322.23L83.25 311.16L86.90 311.16L86.90 334.52L82 334.52L75.57 315.64Q75.63 316.57 75.73 317.88Q75.82 319.19 75.89 320.57Q75.95 321.94 75.95 323.10L75.95 334.52M98.80 334.84Q96.46 334.84 94.67 333.96Q92.88 333.08 91.89 331.53Q90.90 329.98 90.90 327.93Q90.90 325.78 92.13 324.18Q93.36 322.58 95.34 322.17L95.34 322.10Q93.65 321.75 92.61 320.38Q91.57 319 91.57 317.11Q91.57 315.26 92.48 313.85Q93.39 312.44 95.02 311.64Q96.66 310.84 98.80 310.84Q100.94 310.84 102.59 311.64Q104.24 312.44 105.15 313.85Q106.06 315.26 106.06 317.11Q106.06 319 105.01 320.38Q103.95 321.75 102.26 322.10L102.26 322.17Q104.24 322.58 105.47 324.18Q106.70 325.78 106.70 327.93Q106.70 329.98 105.71 331.53Q104.72 333.08 102.93 333.96Q101.14 334.84 98.80 334.84M98.80 320.73Q100.30 320.73 101.23 319.82Q102.16 318.90 102.16 317.46Q102.16 315.99 101.23 315.08Q100.30 314.17 98.80 314.17Q97.30 314.17 96.37 315.08Q95.44 315.99 95.44 317.46Q95.44 318.90 96.37 319.82Q97.30 320.73 98.80 320.73M98.80 331.45Q100.56 331.45 101.68 330.42Q102.80 329.40 102.80 327.74Q102.80 326.04 101.68 325Q100.56 323.96 98.80 323.96Q97.04 323.96 95.92 325Q94.80 326.04 94.80 327.74Q94.80 329.40 95.92 330.42Q97.04 331.45 98.80 331.45M114.35 334.52L110.70 334.52L110.70 311.16L115.60 311.16L122.10 330.04Q122 329.02 121.90 327.62Q121.81 326.23 121.73 324.79Q121.65 323.35 121.65 322.23L121.65 311.16L125.30 311.16L125.30 334.52L120.40 334.52L113.97 315.64Q114.03 316.57 114.13 317.88Q114.22 319.19 114.29 320.57Q114.35 321.94 114.35 323.10" fill="white" fill-opacity="0.9"/>
<path d="M161.48 325.24L151.24 325.24L151.24 322.68L161.48 322.68" fill="white" fill-opacity="0.9"/>
<path d="M195.02 334.84Q191.82 334.84 189.96 333.05Q188.11 331.26 188.11 328.12L188.11 317.56Q188.11 314.42 189.96 312.63Q191.82 310.84 195.02 310.84Q198.15 310.84 200.01 312.65Q201.87 314.46 201.87 317.56L198.99 317.56Q198.99 315.58 197.95 314.50Q196.91 313.43 195.02 313.43Q193.13 313.43 192.06 314.50Q190.99 315.58 190.99 317.56L190.99 328.12Q190.99 330.10 192.06 331.18Q193.13 332.25 195.02 332.25Q196.91 332.25 197.95 331.18Q198.99 330.10 198.99 328.12L201.87 328.12Q201.87 331.22 200.01 333.03Q198.15 334.84 195.02 334.84" fill="white" fill-opacity="0.9"/>
<path d="M213.96 334.84Q210.83 334.84 209 333.02Q207.18 331.19 207.18 327.80L207.18 317.88Q207.18 314.49 209 312.66Q210.83 310.84 213.96 310.84Q217.10 310.84 218.92 312.66Q220.75 314.49 220.75 317.85L220.75 327.80Q220.75 331.19 218.92 333.02Q217.10 334.84 213.96 334.84M213.96 332.25Q215.85 332.25 216.86 331.18Q217.87 330.10 217.87 328.12L217.87 317.56Q217.87 315.58 216.86 314.50Q215.85 313.43 213.96 313.43Q212.11 313.43 211.08 314.50Q210.06 315.58 210.06 317.56L210.06 328.12Q210.06 330.10 211.08 331.18Q212.11 332.25 213.96 332.25" fill="white" fill-opacity="0.9"/>
<path d="M228.65 334.52L225.87 334.52L225.87 311.16L230.12 311.16L233.10 321.27L236.20 311.16L240.46 311.16L240.46 334.52L237.67 334.52L237.67 323.48Q237.67 321.91 237.72 319.88Q237.77 317.85 237.87 315.77Q237.96 313.69 238.09 312.02L234.31 324.09L231.82 324.09L228.20 312.31Q228.46 314.68 228.55 317.50Q228.65 320.31 228.65 323.48" fill="white" fill-opacity="0.9"/>
<path d="M247.85 334.52L245.07 334.52L245.07 311.16L249.32 311.16L252.30 321.27L255.40 311.16L259.66 311.16L259.66 334.52L256.87 334.52L256.87 323.48Q256.87 321.91 256.92 319.88Q256.97 317.85 257.07 315.77Q257.16 313.69 257.29 312.02L253.51 324.09L251.02 324.09L247.40 312.31Q247.66 314.68 247.75 317.50Q247.85 320.31 247.85 323.48" fill="white" fill-opacity="0.9"/>
<path d="M271.56 334.84Q268.30 334.84 266.57 333.03Q264.84 331.22 264.84 328.12L264.84 311.16L267.72 311.16L267.72 328.12Q267.72 330.04 268.67 331.16Q269.61 332.28 271.56 332.28Q273.48 332.28 274.44 331.16Q275.40 330.04 275.40 328.12L275.40 311.16L278.28 311.16L278.28 328.12Q278.28 331.26 276.57 333.05Q274.86 334.84 271.56 334.84" fill="white" fill-opacity="0.9"/>
<path d="M286.83 334.52L284.04 334.52L284.04 311.16L287.88 311.16L295.02 331.16Q294.95 330.36 294.87 329.19Q294.79 328.02 294.75 326.73Q294.70 325.43 294.70 324.28L294.70 311.16L297.48 311.16L297.48 334.52L293.64 334.52L286.54 314.52Q286.60 315.29 286.67 316.46Q286.73 317.62 286.78 318.92Q286.83 320.22 286.83 321.40" fill="white" fill-opacity="0.9"/>
<path d="M316.20 334.52L303.72 334.52L303.72 331.90L308.49 331.90L308.49 313.78L303.72 313.78L303.72 311.16L316.20 311.16L316.20 313.78L311.43 313.78L311.43 331.90L316.20 331.90" fill="white" fill-opacity="0.9"/>
<path d="M330.60 334.52L327.72 334.52L327.72 313.78L321.32 313.78L321.32 311.16L337 311.16L337 313.78L330.60 313.78" fill="white" fill-opacity="0.9"/>
<path d="M349.80 334.52L346.92 334.52L346.92 325.78L339.88 311.16L342.95 311.16L347.50 320.76Q347.88 321.56 348.11 322.12Q348.33 322.68 348.39 322.94Q348.46 322.68 348.70 322.12Q348.94 321.56 349.32 320.76L353.87 311.16L356.84 311.16L349.80 325.78" fill="white" fill-opacity="0.9"/>
<path d="M382.83 334.52L380.04 334.52L380.04 311.16L383.88 311.16L391.02 331.16Q390.95 330.36 390.87 329.19Q390.79 328.02 390.75 326.73Q390.70 325.43 390.70 324.28L390.70 311.16L393.48 311.16L393.48 334.52L389.64 334.52L382.54 314.52Q382.60 315.29 382.67 316.46Q382.73 317.62 382.78 318.92Q382.83 320.22 382.83 321.40" fill="white" fill-opacity="0.9"/>
<path d="M405.96 334.84Q402.83 334.84 401 333.02Q399.18 331.19 399.18 327.80L399.18 317.88Q399.18 314.49 401 312.66Q402.83 310.84 405.96 310.84Q409.10 310.84 410.92 312.66Q412.75 314.49 412.75 317.85L412.75 327.80Q412.75 331.19 410.92 333.02Q409.10 334.84 405.96 334.84M405.96 332.25Q407.85 332.25 408.86 331.18Q409.87 330.10 409.87 328.12L409.87 317.56Q409.87 315.58 408.86 314.50Q407.85 313.43 405.96 313.43Q404.11 313.43 403.08 314.50Q402.06 315.58 402.06 317.56L402.06 328.12Q402.06 330.10 403.08 331.18Q404.11 332.25 405.96 332.25" fill="white" fill-opacity="0.9"/>
<path d="M424.55 334.52L418.51 334.52L418.51 311.16L424.55 311.16Q426.83 311.16 428.47 312.02Q430.12 312.89 431.03 314.46Q431.95 316.02 431.95 318.17L431.95 327.48Q431.95 329.62 431.03 331.21Q430.12 332.79 428.47 333.66Q426.83 334.52 424.55 334.52M421.39 313.72L421.39 331.96L424.55 331.96Q426.67 331.96 427.87 330.78Q429.07 329.59 429.07 327.48L429.07 318.17Q429.07 316.09 427.87 314.90Q426.67 313.72 424.55 313.72" fill="white" fill-opacity="0.9"/>
<path d="M451.40 334.52L437.96 334.52L437.96 311.16L451.40 311.16L451.40 313.78L440.81 313.78L440.81 321.02L450.28 321.02L450.28 323.58L440.81 323.58L440.81 331.90L451.40 331.90" fill="white" fill-opacity="0.9"/>
<path d="M463.69 334.84Q460.30 334.84 458.28 333.05Q456.27 331.26 456.27 328.12L459.15 328.12Q459.15 330.07 460.39 331.18Q461.64 332.28 463.69 332.28Q465.67 332.28 466.86 331.13Q468.04 329.98 468.04 328.12Q468.04 326.71 467.29 325.67Q466.54 324.63 465.13 324.25L461.58 323.26Q459.37 322.62 458.11 320.97Q456.84 319.32 456.84 317.08Q456.84 315.22 457.67 313.82Q458.51 312.41 460.01 311.62Q461.51 310.84 463.47 310.84Q465.45 310.84 466.97 311.62Q468.49 312.41 469.35 313.80Q470.22 315.19 470.22 317.02L467.34 317.02Q467.34 315.42 466.25 314.41Q465.16 313.40 463.47 313.40Q461.77 313.40 460.71 314.41Q459.66 315.42 459.66 317.02Q459.66 318.30 460.35 319.21Q461.03 320.12 462.28 320.47L465.93 321.50Q468.27 322.14 469.56 323.91Q470.86 325.69 470.86 328.12Q470.86 331.19 468.91 333.02Q466.95 334.84 463.69 334.84" fill="white" fill-opacity="0.9"/>
</g>
<path d="M74.37 197.64L72.21 197.64L72.21 180.12L77.85 180.12Q80.30 180.12 81.75 181.52Q83.20 182.93 83.20 185.28Q83.20 187.63 81.75 189.04Q80.30 190.44 77.85 190.44L74.37 190.44L74.37 197.64M74.37 182.06L74.37 188.50L77.85 188.50Q79.26 188.50 80.12 187.62Q80.97 186.74 80.97 185.28Q80.97 183.79 80.12 182.93Q79.26 182.06 77.85 182.06" fill="white" fill-opacity="0.7"/>
<path d="M88.22 197.64L86.13 197.64L86.13 180.12L89.32 180.12L91.55 187.70L93.88 180.12L97.07 180.12L97.07 197.64L94.98 197.64L94.98 189.36Q94.98 188.18 95.02 186.66Q95.06 185.14 95.13 183.58Q95.20 182.02 95.30 180.77L92.46 189.82L90.59 189.82L87.88 180.98Q88.07 182.76 88.14 184.87Q88.22 186.98 88.22 189.36" fill="white" fill-opacity="0.7"/>
<path d="M106.10 197.88Q103.70 197.88 102.30 196.54Q100.91 195.19 100.91 192.84L100.91 184.92Q100.91 182.57 102.30 181.22Q103.70 179.88 106.10 179.88Q108.45 179.88 109.84 181.24Q111.23 182.59 111.23 184.92L109.07 184.92Q109.07 183.43 108.29 182.63Q107.51 181.82 106.10 181.82Q104.68 181.82 103.88 182.62Q103.07 183.41 103.07 184.90L103.07 192.84Q103.07 194.33 103.88 195.14Q104.68 195.96 106.10 195.96Q107.51 195.96 108.29 195.14Q109.07 194.33 109.07 192.84L109.07 190.44L105.52 190.44L105.52 188.47L111.23 188.47L111.23 192.84Q111.23 195.17 109.84 196.52Q108.45 197.88 106.10 197.88" fill="white" fill-opacity="0.7"/>
<path d="M119.94 197.64L115.41 197.64L115.41 180.12L119.94 180.12Q121.65 180.12 122.88 180.77Q124.12 181.42 124.80 182.59Q125.49 183.77 125.49 185.38L125.49 192.36Q125.49 193.97 124.80 195.16Q124.12 196.34 122.88 196.99Q121.65 197.64 119.94 197.64M117.57 182.04L117.57 195.72L119.94 195.72Q121.53 195.72 122.43 194.83Q123.33 193.94 123.33 192.36L123.33 185.38Q123.33 183.82 122.43 182.93Q121.53 182.04 119.94 182.04" fill="white" fill-opacity="0.7"/>
<path d="M139.48 197.64L130.12 197.64L130.12 195.67L133.70 195.67L133.70 182.09L130.12 182.09L130.12 180.12L139.48 180.12L139.48 182.09L135.90 182.09L135.90 195.67L139.48 195.67" fill="white" fill-opacity="0.7"/>
<path d="M149.30 197.88Q146.75 197.88 145.24 196.54Q143.73 195.19 143.73 192.84L145.89 192.84Q145.89 194.30 146.82 195.13Q147.76 195.96 149.30 195.96Q150.78 195.96 151.67 195.10Q152.56 194.23 152.56 192.84Q152.56 191.78 152 191Q151.43 190.22 150.38 189.94L147.71 189.19Q146.06 188.71 145.11 187.48Q144.16 186.24 144.16 184.56Q144.16 183.17 144.78 182.11Q145.41 181.06 146.54 180.47Q147.66 179.88 149.13 179.88Q150.62 179.88 151.76 180.47Q152.90 181.06 153.54 182.10Q154.19 183.14 154.19 184.51L152.03 184.51Q152.03 183.31 151.22 182.56Q150.40 181.80 149.13 181.80Q147.86 181.80 147.06 182.56Q146.27 183.31 146.27 184.51Q146.27 185.47 146.79 186.16Q147.30 186.84 148.24 187.10L150.98 187.87Q152.73 188.35 153.70 189.68Q154.67 191.02 154.67 192.84Q154.67 195.14 153.21 196.51Q151.74 197.88 149.30 197.88" fill="white" fill-opacity="0.7"/>
<path d="M160.79 197.64L158.63 197.64L158.63 180.12L160.79 180.12L160.79 187.61L166.41 187.61L166.41 180.12L168.57 180.12L168.57 197.64L166.41 197.64L166.41 189.58L160.79 189.58" fill="white" fill-opacity="0.7"/>
<path d="M174.21 197.64LNaN 197.64L176.56 180.12L179.46 180.12LNaN 197.64L181.82 197.64L180.66 192.98L175.36 192.98L174.21 197.64M177.14 185.74L175.79 191.16L180.21 191.16L178.86 185.76Q178.48 184.22 178.26 183.19Q178.05 182.16 NaN 181.85Q177.95 182.16 177.74 183.19Q177.52 184.22 177.14 185.74" fill="white" fill-opacity="0.7"/>
<path d="M206.99 197.88Q204.59 197.88 203.15 196.54Q201.71 195.19 201.71 192.84L201.71 189.24Q201.71 186.89 203.15 185.54Q204.59 184.20 206.99 184.20Q209.27 184.20 210.68 185.42Q212.08 186.65 212.15 188.76L209.99 188.76Q209.92 187.49 209.13 186.80Q208.34 186.12 206.99 186.12Q205.58 186.12 204.72 186.92Q203.87 187.73 203.87 189.22L203.87 192.84Q203.87 194.33 204.72 195.14Q205.58 195.96 206.99 195.96Q208.34 195.96 209.13 195.26Q209.92 194.57 209.99 193.32L212.15 193.32Q212.08 195.43 210.68 196.66Q209.27 197.88 206.99 197.88" fill="white" fill-opacity="0.7"/>
<path d="M221.20 197.88Q218.87 197.88 217.44 196.48Q216.02 195.07 216.02 192.60L216.02 189.48Q216.02 187.01 217.44 185.60Q218.87 184.20 221.20 184.20Q222.76 184.20 223.92 184.82Q225.09 185.45 225.74 186.58Q226.38 187.70 226.38 189.24L226.38 191.59L218.13 191.59L218.13 192.84Q218.13 194.30 218.97 195.16Q219.81 196.01 221.20 196.01Q222.40 196.01 223.18 195.54Q223.96 195.07 224.13 194.28L226.29 194.28Q226.07 195.94 224.68 196.91Q223.29 197.88 221.20 197.88M218.13 189.24L218.13 189.91L224.27 189.91L224.27 189.24Q224.27 187.68 223.47 186.83Q222.66 185.98 221.20 185.98Q219.74 185.98 218.93 186.83Q218.13 187.68 218.13 189.24" fill="white" fill-opacity="0.7"/>
<path d="M233.25 197.64L231.09 197.64L231.09 184.44L233.25 184.44L233.25 186.96L233.30 186.96Q233.46 185.69 234.38 184.94Q235.29 184.20 236.82 184.20Q238.89 184.20 240 185.44Q241.12 186.67 241.12 188.95L241.12 190.08L238.96 190.08L238.96 188.95Q238.96 186.07 236.15 186.07Q234.74 186.07 233.99 186.89Q233.25 187.70 233.25 189.24" fill="white" fill-opacity="0.7"/>
<path d="M255.16 197.64L251.32 197.64Q249.69 197.64 248.70 196.69Q247.72 195.74 247.72 194.16L247.72 186.41L243.93 186.41L243.93 184.44L247.72 184.44L247.72 180.72L249.88 180.72L249.88 184.44L255.28 184.44L255.28 186.41L249.88 186.41L249.88 194.16Q249.88 194.83 250.28 195.25Q250.67 195.67 251.32 195.67L255.16 195.67" fill="white" fill-opacity="0.7"/>
<path d="M270.52 197.64L259.24 197.64L259.24 195.67L263.92 195.67L263.92 186.41L259.72 186.41L259.72 184.44L266.08 184.44L266.08 195.67L270.52 195.67L270.52 197.64M264.76 182.06Q263.97 182.06 263.51 181.66Q263.06 181.25 263.06 180.55Q263.06 179.83 263.51 179.41Q263.97 178.99 264.76 178.99Q265.55 178.99 266.01 179.41Q266.46 179.83 266.46 180.55Q266.46 181.25 266.01 181.66Q265.55 182.06 264.76 182.06" fill="white" fill-opacity="0.7"/>
<path d="M278.92 197.64L276.76 197.64L276.76 188.21L272.92 188.21L272.92 186.24L276.76 186.24L276.76 183.48Q276.76 181.92 277.74 181.02Q278.73 180.12 280.46 180.12L284.32 180.12L284.32 182.09L280.46 182.09Q278.92 182.09 278.92 183.48L278.92 186.24L284.32 186.24L284.32 188.21L278.92 188.21" fill="white" fill-opacity="0.7"/>
<path d="M299.32 197.64L288.04 197.64L288.04 195.67L292.72 195.67L292.72 186.41L288.52 186.41L288.52 184.44L294.88 184.44L294.88 195.67L299.32 195.67L299.32 197.64M293.56 182.06Q292.77 182.06 292.31 181.66Q291.86 181.25 291.86 180.55Q291.86 179.83 292.31 179.41Q292.77 178.99 293.56 178.99Q294.35 178.99 294.81 179.41Q295.26 179.83 295.26 180.55Q295.26 181.25 294.81 181.66Q294.35 182.06 293.56 182.06" fill="white" fill-opacity="0.7"/>
<path d="M307.79 197.88Q305.39 197.88 303.95 196.54Q302.51 195.19 302.51 192.84L302.51 189.24Q302.51 186.89 303.95 185.54Q305.39 184.20 307.79 184.20Q310.07 184.20 311.48 185.42Q312.88 186.65 312.95 188.76L310.79 188.76Q310.72 187.49 309.93 186.80Q309.14 186.12 307.79 186.12Q306.38 186.12 305.52 186.92Q304.67 187.73 304.67 189.22L304.67 192.84Q304.67 194.33 305.52 195.14Q306.38 195.96 307.79 195.96Q309.14 195.96 309.93 195.26Q310.72 194.57 310.79 193.32L312.95 193.32Q312.88 195.43 311.48 196.66Q310.07 197.88 307.79 197.88" fill="white" fill-opacity="0.7"/>
<path d="M320.85 197.88Q318.81 197.88 317.61 196.74Q316.41 195.60 316.41 193.75Q316.41 192.53 316.96 191.62Q317.51 190.70 318.50 190.19Q319.48 189.67 320.75 189.67L324.83 189.67L324.83 188.64Q324.83 186.07 322.02 186.07Q320.78 186.07 320.01 186.53Q319.24 186.98 319.19 187.80L317.03 187.80Q317.15 186.24 318.48 185.22Q319.82 184.20 322.02 184.20Q324.42 184.20 325.71 185.35Q326.99 186.50 326.99 188.57L326.99 197.64L324.86 197.64L324.86 195.24L324.81 195.24Q324.62 196.46 323.58 197.17Q322.55 197.88 320.85 197.88M321.38 196.06Q322.96 196.06 323.90 195.29Q324.83 194.52 324.83 193.20L324.83 191.35L320.99 191.35Q319.94 191.35 319.28 191.99Q318.62 192.62 318.62 193.68Q318.62 194.78 319.35 195.42Q320.08 196.06 321.38 196.06" fill="white" fill-opacity="0.7"/>
<path d="M341.56 197.64L337.72 197.64Q336.09 197.64 335.10 196.69Q334.12 195.74 334.12 194.16L334.12 186.41L330.33 186.41L330.33 184.44L334.12 184.44L334.12 180.72L336.28 180.72L336.28 184.44L341.68 184.44L341.68 186.41L336.28 186.41L336.28 194.16Q336.28 194.83 336.68 195.25Q337.07 195.67 337.72 195.67L341.56 195.67" fill="white" fill-opacity="0.7"/>
<path d="M350.80 197.88Q348.47 197.88 347.04 196.48Q345.62 195.07 345.62 192.60L345.62 189.48Q345.62 187.01 347.04 185.60Q348.47 184.20 350.80 184.20Q352.36 184.20 353.52 184.82Q354.69 185.45 355.34 186.58Q355.98 187.70 355.98 189.24L355.98 191.59L347.73 191.59L347.73 192.84Q347.73 194.30 348.57 195.16Q349.41 196.01 350.80 196.01Q352 196.01 352.78 195.54Q353.56 195.07 353.73 194.28L355.89 194.28Q355.67 195.94 354.28 196.91Q352.89 197.88 350.80 197.88M347.73 189.24L347.73 189.91L353.87 189.91L353.87 189.24Q353.87 187.68 353.07 186.83Q352.26 185.98 350.80 185.98Q349.34 185.98 348.53 186.83Q347.73 187.68 347.73 189.24" fill="white" fill-opacity="0.7"/>
<path d="M365.73 197.83L364.67 197.83Q362.46 197.83 361.25 196.84Q360.04 195.84 360.04 194.02L362.20 194.02Q362.20 194.93 362.85 195.44Q363.50 195.96 364.67 195.96L365.73 195.96Q366.93 195.96 367.59 195.43Q368.25 194.90 368.25 193.94Q368.25 192.24 366.69 192.02L363.04 191.50Q361.70 191.30 360.95 190.38Q360.21 189.46 360.21 187.94Q360.21 186.22 361.40 185.23Q362.58 184.25 364.67 184.25L365.73 184.25Q367.65 184.25 368.86 185.20Q370.07 186.14 370.17 187.68L367.98 187.68Q367.94 186.98 367.32 186.53Q366.71 186.07 365.73 186.07L364.67 186.07Q363.57 186.07 362.94 186.58Q362.32 187.08 362.32 187.94Q362.32 189.34 363.59 189.53L367 190.01Q370.36 190.49 370.36 193.94Q370.36 195.79 369.15 196.81Q367.94 197.83 365.73 197.83" fill="white" fill-opacity="0.7"/>
<path d="M394.12 197.64L391.96 197.64L391.96 188.21L388.12 188.21L388.12 186.24L391.96 186.24L391.96 183.48Q391.96 181.92 392.94 181.02Q393.93 180.12 395.66 180.12L399.52 180.12L399.52 182.09L395.66 182.09Q394.12 182.09 394.12 183.48L394.12 186.24L399.52 186.24L399.52 188.21L394.12 188.21" fill="white" fill-opacity="0.7"/>
<path d="M406.05 197.64L403.89 197.64L403.89 184.44L406.05 184.44L406.05 186.96L406.10 186.96Q406.26 185.69 407.18 184.94Q408.09 184.20 409.62 184.20Q411.69 184.20 412.80 185.44Q413.92 186.67 413.92 188.95L413.92 190.08L411.76 190.08L411.76 188.95Q411.76 186.07 408.95 186.07Q407.54 186.07 406.79 186.89Q406.05 187.70 406.05 189.24" fill="white" fill-opacity="0.7"/>
<path d="M422.80 197.83Q420.42 197.83 419.02 196.44Q417.62 195.05 417.62 192.55L417.62 189.53Q417.62 187.01 419.01 185.63Q420.40 184.25 422.80 184.25Q425.20 184.25 426.59 185.63Q427.98 187.01 427.98 189.53L427.98 192.55Q427.98 195.05 426.58 196.44Q425.18 197.83 422.80 197.83M422.80 195.91Q424.22 195.91 425.02 195.12Q425.82 194.33 425.82 192.79L425.82 189.29Q425.82 187.75 425.02 186.96Q424.22 186.17 422.80 186.17Q421.41 186.17 420.59 186.96Q419.78 187.75 419.78 189.29L419.78 192.79Q419.78 194.33 420.59 195.12Q421.41 195.91 422.80 195.91" fill="white" fill-opacity="0.7"/>
<path d="M433.46 197.64L431.44 197.64L431.44 184.44L433.31 184.44L433.31 186.19L433.36 186.19Q433.48 185.30 434.07 184.75Q434.66 184.20 435.57 184.20Q436.43 184.20 437.03 184.70Q437.63 185.21 437.90 186.07L437.92 186.07Q438.09 185.21 438.68 184.70Q439.26 184.20 440.18 184.20Q441.45 184.20 442.20 185.15Q442.96 186.10 442.96 187.61L442.96 197.64L440.94 197.64L440.94 187.58Q440.94 186.79 440.56 186.32Q440.18 185.86 439.50 185.86Q438.86 185.86 438.47 186.31Q438.09 186.77 438.09 187.56L438.09 197.64L436.31 197.64L436.31 187.58Q436.31 186.79 435.93 186.32Q435.54 185.86 434.90 185.86Q434.22 185.86 433.84 186.31Q433.46 186.77 433.46 187.56" fill="white" fill-opacity="0.7"/>
<path d="M464.85 197.88Q462.81 197.88 461.61 196.74Q460.41 195.60 460.41 193.75Q460.41 192.53 460.96 191.62Q461.51 190.70 462.50 190.19Q463.48 189.67 464.75 189.67L468.83 189.67L468.83 188.64Q468.83 186.07 466.02 186.07Q464.78 186.07 464.01 186.53Q463.24 186.98 463.19 187.80L461.03 187.80Q461.15 186.24 462.48 185.22Q463.82 184.20 466.02 184.20Q468.42 184.20 469.71 185.35Q470.99 186.50 470.99 188.57L470.99 197.64L468.86 197.64L468.86 195.24L468.81 195.24Q468.62 196.46 467.58 197.17Q466.55 197.88 464.85 197.88M465.38 196.06Q466.96 196.06 467.90 195.29Q468.83 194.52 468.83 193.20L468.83 191.35L464.99 191.35Q463.94 191.35 463.28 191.99Q462.62 192.62 462.62 193.68Q462.62 194.78 463.35 195.42Q464.08 196.06 465.38 196.06" fill="white" fill-opacity="0.7"/>
<path d="M480.38 197.88Q478.10 197.88 476.73 196.52Q475.36 195.17 475.36 192.84L475.36 184.44L477.52 184.44L477.52 192.84Q477.52 194.28 478.29 195.13Q479.06 195.98 480.38 195.98Q481.72 195.98 482.50 195.13Q483.28 194.28 483.28 192.84L483.28 184.44L485.44 184.44L485.44 192.84Q485.44 195.17 484.05 196.52Q482.66 197.88 480.38 197.88" fill="white" fill-opacity="0.7"/>
<path d="M499.96 197.64L496.12 197.64Q494.49 197.64 493.50 196.69Q492.52 195.74 492.52 194.16L492.52 186.41L488.73 186.41L488.73 184.44L492.52 184.44L492.52 180.72L494.68 180.72L494.68 184.44L500.08 184.44L500.08 186.41L494.68 186.41L494.68 194.16Q494.68 194.83 495.08 195.25Q495.47 195.67 496.12 195.67L499.96 195.67" fill="white" fill-opacity="0.7"/>
<path d="M506.37 197.64L504.21 197.64L504.21 180.12L506.37 180.12L506.37 186.96L506.39 186.96Q506.56 185.64 507.47 184.92Q508.38 184.20 509.90 184.20Q511.89 184.20 513.06 185.42Q514.24 186.65 514.24 188.76L514.24 197.64L512.08 197.64L512.08 189.12Q512.08 187.63 511.32 186.83Q510.57 186.02 509.27 186.02Q507.93 186.02 507.15 186.86Q506.37 187.70 506.37 189.24" fill="white" fill-opacity="0.7"/>
<path d="M523.60 197.83Q521.22 197.83 519.82 196.44Q518.42 195.05 518.42 192.55L518.42 189.53Q518.42 187.01 519.81 185.63Q521.20 184.25 523.60 184.25Q526 184.25 527.39 185.63Q528.78 187.01 528.78 189.53L528.78 192.55Q528.78 195.05 527.38 196.44Q525.98 197.83 523.60 197.83M523.60 195.91Q525.02 195.91 525.82 195.12Q526.62 194.33 526.62 192.79L526.62 189.29Q526.62 187.75 525.82 186.96Q525.02 186.17 523.60 186.17Q522.21 186.17 521.39 186.96Q520.58 187.75 520.58 189.29L520.58 192.79Q520.58 194.33 521.39 195.12Q522.21 195.91 523.60 195.91" fill="white" fill-opacity="0.7"/>
<path d="M535.65 197.64L533.49 197.64L533.49 184.44L535.65 184.44L535.65 186.96L535.70 186.96Q535.86 185.69 536.78 184.94Q537.69 184.20 539.22 184.20Q541.29 184.20 542.40 185.44Q543.52 186.67 543.52 188.95L543.52 190.08L541.36 190.08L541.36 188.95Q541.36 186.07 538.55 186.07Q537.14 186.07 536.39 186.89Q535.65 187.70 535.65 189.24" fill="white" fill-opacity="0.7"/>
<path d="M558.52 197.64L547.24 197.64L547.24 195.67L551.92 195.67L551.92 186.41L547.72 186.41L547.72 184.44L554.08 184.44L554.08 195.67L558.52 195.67L558.52 197.64M552.76 182.06Q551.97 182.06 551.51 181.66Q551.06 181.25 551.06 180.55Q551.06 179.83 551.51 179.41Q551.97 178.99 552.76 178.99Q553.55 178.99 554.01 179.41Q554.46 179.83 554.46 180.55Q554.46 181.25 554.01 181.66Q553.55 182.06 552.76 182.06" fill="white" fill-opacity="0.7"/>
<path d="M571.84 197.64L561.76 197.64L561.76 195.48L569.15 186.41L561.95 186.41L561.95 184.44L571.58 184.44L571.58 186.60L564.04 195.67L571.84 195.67" fill="white" fill-opacity="0.7"/>
<path d="M581.20 197.88Q578.87 197.88 577.44 196.48Q576.02 195.07 576.02 192.60L576.02 189.48Q576.02 187.01 577.44 185.60Q578.87 184.20 581.20 184.20Q582.76 184.20 583.92 184.82Q585.09 185.45 585.74 186.58Q586.38 187.70 586.38 189.24L586.38 191.59L578.13 191.59L578.13 192.84Q578.13 194.30 578.97 195.16Q579.81 196.01 581.20 196.01Q582.40 196.01 583.18 195.54Q583.96 195.07 584.13 194.28L586.29 194.28Q586.07 195.94 584.68 196.91Q583.29 197.88 581.20 197.88M578.13 189.24L578.13 189.91L584.27 189.91L584.27 189.24Q584.27 187.68 583.47 186.83Q582.66 185.98 581.20 185.98Q579.74 185.98 578.93 186.83Q578.13 187.68 578.13 189.24" fill="white" fill-opacity="0.7"/>
<path d="M594.83 197.88Q592.86 197.88 591.68 196.56Q590.49 195.24 590.49 192.98L590.49 189.12Q590.49 186.84 591.66 185.52Q592.84 184.20 594.83 184.20Q596.32 184.20 597.29 184.94Q598.26 185.69 598.46 186.96L598.48 186.96L598.43 183.96L598.43 180.12L600.59 180.12L600.59 197.64L598.43 197.64L598.43 195.12L598.41 195.12Q598.24 196.42 597.28 197.15Q596.32 197.88 594.83 197.88M595.55 196.01Q596.90 196.01 597.66 195.17Q598.43 194.33 598.43 192.84L598.43 189.24Q598.43 187.75 597.66 186.91Q596.90 186.07 595.55 186.07Q594.18 186.07 593.42 186.78Q592.65 187.49 592.65 189.12L592.65 192.96Q592.65 194.57 593.42 195.29Q594.18 196.01 595.55 196.01" fill="white" fill-opacity="0.7"/>
<path d="M624.59 197.88Q622.19 197.88 620.75 196.54Q619.31 195.19 619.31 192.84L619.31 189.24Q619.31 186.89 620.75 185.54Q622.19 184.20 624.59 184.20Q626.87 184.20 628.28 185.42Q629.68 186.65 629.75 188.76L627.59 188.76Q627.52 187.49 626.73 186.80Q625.94 186.12 624.59 186.12Q623.18 186.12 622.32 186.92Q621.47 187.73 621.47 189.22L621.47 192.84Q621.47 194.33 622.32 195.14Q623.18 195.96 624.59 195.96Q625.94 195.96 626.73 195.26Q627.52 194.57 627.59 193.32L629.75 193.32Q629.68 195.43 628.28 196.66Q626.87 197.88 624.59 197.88" fill="white" fill-opacity="0.7"/>
<path d="M638.80 197.88Q636.47 197.88 635.04 196.48Q633.62 195.07 633.62 192.60L633.62 189.48Q633.62 187.01 635.04 185.60Q636.47 184.20 638.80 184.20Q640.36 184.20 641.52 184.82Q642.69 185.45 643.34 186.58Q643.98 187.70 643.98 189.24L643.98 191.59L635.73 191.59L635.73 192.84Q635.73 194.30 636.57 195.16Q637.41 196.01 638.80 196.01Q640 196.01 640.78 195.54Q641.56 195.07 641.73 194.28L643.89 194.28Q643.67 195.94 642.28 196.91Q640.89 197.88 638.80 197.88M635.73 189.24L635.73 189.91L641.87 189.91L641.87 189.24Q641.87 187.68 641.07 186.83Q640.26 185.98 638.80 185.98Q637.34 185.98 636.53 186.83Q635.73 187.68 635.73 189.24" fill="white" fill-opacity="0.7"/>
<path d="M650.37 197.64L648.21 197.64L648.21 184.44L650.37 184.44L650.37 186.96L650.39 186.96Q650.56 185.64 651.47 184.92Q652.38 184.20 653.90 184.20Q655.89 184.20 657.06 185.42Q658.24 186.65 658.24 188.76L658.24 197.64L656.08 197.64L656.08 189.14Q656.08 187.63 655.32 186.83Q654.57 186.02 653.27 186.02Q651.93 186.02 651.15 186.86Q650.37 187.70 650.37 189.24" fill="white" fill-opacity="0.7"/>
<path d="M672.76 197.64L668.92 197.64Q667.29 197.64 666.30 196.69Q665.32 195.74 665.32 194.16L665.32 186.41L661.53 186.41L661.53 184.44L665.32 184.44L665.32 180.72L667.48 180.72L667.48 184.44L672.88 184.44L672.88 186.41L667.48 186.41L667.48 194.16Q667.48 194.83 667.88 195.25Q668.27 195.67 668.92 195.67L672.76 195.67" fill="white" fill-opacity="0.7"/>
<path d="M679.65 197.64L677.49 197.64L677.49 184.44L679.65 184.44L679.65 186.96L679.70 186.96Q679.86 185.69 680.78 184.94Q681.69 184.20 683.22 184.20Q685.29 184.20 686.40 185.44Q687.52 186.67 687.52 188.95L687.52 190.08L685.36 190.08L685.36 188.95Q685.36 186.07 682.55 186.07Q681.14 186.07 680.39 186.89Q679.65 187.70 679.65 189.24" fill="white" fill-opacity="0.7"/>
<path d="M696.40 197.88Q694.07 197.88 692.64 196.48Q691.22 195.07 691.22 192.60L691.22 189.48Q691.22 187.01 692.64 185.60Q694.07 184.20 696.40 184.20Q697.96 184.20 699.12 184.82Q700.29 185.45 700.94 186.58Q701.58 187.70 701.58 189.24L701.58 191.59L693.33 191.59L693.33 192.84Q693.33 194.30 694.17 195.16Q695.01 196.01 696.40 196.01Q697.60 196.01 698.38 195.54Q699.16 195.07 699.33 194.28L701.49 194.28Q701.27 195.94 699.88 196.91Q698.49 197.88 696.40 197.88M693.33 189.24L693.33 189.91L699.47 189.91L699.47 189.24Q699.47 187.68 698.67 186.83Q697.86 185.98 696.40 185.98Q694.94 185.98 694.13 186.83Q693.33 187.68 693.33 189.24" fill="white" fill-opacity="0.7"/>
<path d="M711.33 197.83L710.27 197.83Q708.06 197.83 706.85 196.84Q705.64 195.84 705.64 194.02L707.80 194.02Q707.80 194.93 708.45 195.44Q709.10 195.96 710.27 195.96L711.33 195.96Q712.53 195.96 713.19 195.43Q713.85 194.90 713.85 193.94Q713.85 192.24 712.29 192.02L708.64 191.50Q707.30 191.30 706.55 190.38Q705.81 189.46 705.81 187.94Q705.81 186.22 707 185.23Q708.18 184.25 710.27 184.25L711.33 184.25Q713.25 184.25 714.46 185.20Q715.67 186.14 715.77 187.68L713.58 187.68Q713.54 186.98 712.92 186.53Q712.31 186.07 711.33 186.07L710.27 186.07Q709.17 186.07 708.54 186.58Q707.92 187.08 707.92 187.94Q707.92 189.34 709.19 189.53L712.60 190.01Q715.96 190.49 715.96 193.94Q715.96 195.79 714.75 196.81Q713.54 197.83 711.33 197.83" fill="white" fill-opacity="0.7"/>
<path d="M738.45 197.88Q736.41 197.88 735.21 196.74Q734.01 195.60 734.01 193.75Q734.01 192.53 734.56 191.62Q735.11 190.70 736.10 190.19Q737.08 189.67 738.35 189.67L742.43 189.67L742.43 188.64Q742.43 186.07 739.62 186.07Q738.38 186.07 737.61 186.53Q736.84 186.98 736.79 187.80L734.63 187.80Q734.75 186.24 736.08 185.22Q737.42 184.20 739.62 184.20Q742.02 184.20 743.31 185.35Q744.59 186.50 744.59 188.57L744.59 197.64L742.46 197.64L742.46 195.24L742.41 195.24Q742.22 196.46 741.18 197.17Q740.15 197.88 738.45 197.88M738.98 196.06Q740.56 196.06 741.50 195.29Q742.43 194.52 742.43 193.20L742.43 191.35L738.59 191.35Q737.54 191.35 736.88 191.99Q736.22 192.62 736.22 193.68Q736.22 194.78 736.95 195.42Q737.68 196.06 738.98 196.06" fill="white" fill-opacity="0.7"/>
<path d="M751.65 197.64L749.49 197.64L749.49 184.44L751.65 184.44L751.65 186.96L751.70 186.96Q751.86 185.69 752.78 184.94Q753.69 184.20 755.22 184.20Q757.29 184.20 758.40 185.44Q759.52 186.67 759.52 188.95L759.52 190.08L757.36 190.08L757.36 188.95Q757.36 186.07 754.55 186.07Q753.14 186.07 752.39 186.89Q751.65 187.70 751.65 189.24" fill="white" fill-opacity="0.7"/>
<path d="M768.40 197.88Q766.07 197.88 764.64 196.48Q763.22 195.07 763.22 192.60L763.22 189.48Q763.22 187.01 764.64 185.60Q766.07 184.20 768.40 184.20Q769.96 184.20 771.12 184.82Q772.29 185.45 772.94 186.58Q773.58 187.70 773.58 189.24L773.58 191.59L765.33 191.59L765.33 192.84Q765.33 194.30 766.17 195.16Q767.01 196.01 768.40 196.01Q769.60 196.01 770.38 195.54Q771.16 195.07 771.33 194.28L773.49 194.28Q773.27 195.94 771.88 196.91Q770.49 197.88 768.40 197.88M765.33 189.24L765.33 189.91L771.47 189.91L771.47 189.24Q771.47 187.68 770.67 186.83Q769.86 185.98 768.40 185.98Q766.94 185.98 766.13 186.83Q765.33 187.68 765.33 189.24" fill="white" fill-opacity="0.7"/>
<path d="M796.05 197.88Q794.01 197.88 792.81 196.74Q791.61 195.60 791.61 193.75Q791.61 192.53 792.16 191.62Q792.71 190.70 793.70 190.19Q794.68 189.67 795.95 189.67L800.03 189.67L800.03 188.64Q800.03 186.07 797.22 186.07Q795.98 186.07 795.21 186.53Q794.44 186.98 794.39 187.80L792.23 187.80Q792.35 186.24 793.68 185.22Q795.02 184.20 797.22 184.20Q799.62 184.20 800.91 185.35Q802.19 186.50 802.19 188.57L802.19 197.64L800.06 197.64L800.06 195.24L800.01 195.24Q799.82 196.46 798.78 197.17Q797.75 197.88 796.05 197.88M796.58 196.06Q798.16 196.06 799.10 195.29Q800.03 194.52 800.03 193.20L800.03 191.35L796.19 191.35Q795.14 191.35 794.48 191.99Q793.82 192.62 793.82 193.68Q793.82 194.78 794.55 195.42Q795.28 196.06 796.58 196.06" fill="white" fill-opacity="0.7"/>
<path d="M813.02 197.64L810.18 197.64L805.70 184.44L808.02 184.44L810.90 193.32Q811.17 194.11 811.36 194.84Q811.55 195.58 811.65 195.98Q811.77 195.58 811.94 194.84Q812.10 194.11 812.34 193.32L815.22 184.44L817.50 184.44" fill="white" fill-opacity="0.7"/>
<path d="M824.85 197.88Q822.81 197.88 821.61 196.74Q820.41 195.60 820.41 193.75Q820.41 192.53 820.96 191.62Q821.51 190.70 822.50 190.19Q823.48 189.67 824.75 189.67L828.83 189.67L828.83 188.64Q828.83 186.07 826.02 186.07Q824.78 186.07 824.01 186.53Q823.24 186.98 823.19 187.80L821.03 187.80Q821.15 186.24 822.48 185.22Q823.82 184.20 826.02 184.20Q828.42 184.20 829.71 185.35Q830.99 186.50 830.99 188.57L830.99 197.64L828.86 197.64L828.86 195.24L828.81 195.24Q828.62 196.46 827.58 197.17Q826.55 197.88 824.85 197.88M825.38 196.06Q826.96 196.06 827.90 195.29Q828.83 194.52 828.83 193.20L828.83 191.35L824.99 191.35Q823.94 191.35 823.28 191.99Q822.62 192.62 822.62 193.68Q822.62 194.78 823.35 195.42Q824.08 196.06 825.38 196.06" fill="white" fill-opacity="0.7"/>
<path d="M846.52 197.64L835.24 197.64L835.24 195.67L839.92 195.67L839.92 186.41L835.72 186.41L835.72 184.44L842.08 184.44L842.08 195.67L846.52 195.67L846.52 197.64M840.76 182.06Q839.97 182.06 839.51 181.66Q839.06 181.25 839.06 180.55Q839.06 179.83 839.51 179.41Q839.97 178.99 840.76 178.99Q841.55 178.99 842.01 179.41Q842.46 179.83 842.46 180.55Q842.46 181.25 842.01 181.66Q841.55 182.06 840.76 182.06" fill="white" fill-opacity="0.7"/>
<path d="M860.80 197.64L856.72 197.64Q854.97 197.64 853.92 196.62Q852.88 195.60 852.88 193.92L852.88 182.09L848.32 182.09L848.32 180.12L855.04 180.12L855.04 193.92Q855.04 194.74 855.50 195.20Q855.95 195.67 856.72 195.67L860.80 195.67" fill="white" fill-opacity="0.7"/>
<path d="M868.05 197.88Q866.01 197.88 864.81 196.74Q863.61 195.60 863.61 193.75Q863.61 192.53 864.16 191.62Q864.71 190.70 865.70 190.19Q866.68 189.67 867.95 189.67L872.03 189.67L872.03 188.64Q872.03 186.07 869.22 186.07Q867.98 186.07 867.21 186.53Q866.44 186.98 866.39 187.80L864.23 187.80Q864.35 186.24 865.68 185.22Q867.02 184.20 869.22 184.20Q871.62 184.20 872.91 185.35Q874.19 186.50 874.19 188.57L874.19 197.64L872.06 197.64L872.06 195.24L872.01 195.24Q871.82 196.46 870.78 197.17Q869.75 197.88 868.05 197.88M868.58 196.06Q870.16 196.06 871.10 195.29Q872.03 194.52 872.03 193.20L872.03 191.35L868.19 191.35Q867.14 191.35 866.48 191.99Q865.82 192.62 865.82 193.68Q865.82 194.78 866.55 195.42Q867.28 196.06 868.58 196.06" fill="white" fill-opacity="0.7"/>
<path d="M884.37 197.88Q882.88 197.88 881.92 197.15Q880.96 196.42 880.79 195.12L880.77 195.12L880.77 197.64L878.61 197.64L878.61 180.12L880.77 180.12L880.77 183.96L880.72 186.96L880.74 186.96Q880.94 185.69 881.91 184.94Q882.88 184.20 884.37 184.20Q886.36 184.20 887.54 185.52Q888.71 186.84 888.71 189.12L888.71 192.98Q888.71 195.24 887.54 196.56Q886.36 197.88 884.37 197.88M883.65 196.01Q885.02 196.01 885.78 195.29Q886.55 194.57 886.55 192.96L886.55 189.12Q886.55 187.49 885.78 186.78Q885.02 186.07 883.65 186.07Q882.33 186.07 881.55 186.91Q880.77 187.75 880.77 189.24L880.77 192.84Q880.77 194.33 881.55 195.17Q882.33 196.01 883.65 196.01" fill="white" fill-opacity="0.7"/>
<path d="M904 197.64L899.92 197.64Q898.17 197.64 897.12 196.62Q896.08 195.60 896.08 193.92L896.08 182.09L891.52 182.09L891.52 180.12L898.24 180.12L898.24 193.92Q898.24 194.74 898.70 195.20Q899.15 195.67 899.92 195.67L904 195.67" fill="white" fill-opacity="0.7"/>
<path d="M912.40 197.88Q910.07 197.88 908.64 196.48Q907.22 195.07 907.22 192.60L907.22 189.48Q907.22 187.01 908.64 185.60Q910.07 184.20 912.40 184.20Q913.96 184.20 915.12 184.82Q916.29 185.45 916.94 186.58Q917.58 187.70 917.58 189.24L917.58 191.59L909.33 191.59L909.33 192.84Q909.33 194.30 910.17 195.16Q911.01 196.01 912.40 196.01Q913.60 196.01 914.38 195.54Q915.16 195.07 915.33 194.28L917.49 194.28Q917.27 195.94 915.88 196.91Q914.49 197.88 912.40 197.88M909.33 189.24L909.33 189.91L915.47 189.91L915.47 189.24Q915.47 187.68 914.67 186.83Q913.86 185.98 912.40 185.98Q910.94 185.98 910.13 186.83Q909.33 187.68 909.33 189.24" fill="white" fill-opacity="0.7"/>
<path d="M946.36 197.64L942.52 197.64Q940.89 197.64 939.90 196.69Q938.92 195.74 938.92 194.16L938.92 186.41L935.13 186.41L935.13 184.44L938.92 184.44L938.92 180.72L941.08 180.72L941.08 184.44L946.48 184.44L946.48 186.41L941.08 186.41L941.08 194.16Q941.08 194.83 941.48 195.25Q941.87 195.67 942.52 195.67L946.36 195.67" fill="white" fill-opacity="0.7"/>
<path d="M955.60 197.83Q953.22 197.83 951.82 196.44Q950.42 195.05 950.42 192.55L950.42 189.53Q950.42 187.01 951.81 185.63Q953.20 184.25 955.60 184.25Q958 184.25 959.39 185.63Q960.78 187.01 960.78 189.53L960.78 192.55Q960.78 195.05 959.38 196.44Q957.98 197.83 955.60 197.83M955.60 195.91Q957.02 195.91 957.82 195.12Q958.62 194.33 958.62 192.79L958.62 189.29Q958.62 187.75 957.82 186.96Q957.02 186.17 955.60 186.17Q954.21 186.17 953.39 186.96Q952.58 187.75 952.58 189.29L952.58 192.79Q952.58 194.33 953.39 195.12Q954.21 195.91 955.60 195.91" fill="white" fill-opacity="0.7"/>
<path d="M984.59 197.88Q982.19 197.88 980.75 196.54Q979.31 195.19 979.31 192.84L979.31 189.24Q979.31 186.89 980.75 185.54Q982.19 184.20 984.59 184.20Q986.87 184.20 988.28 185.42Q989.68 186.65 989.75 188.76L987.59 188.76Q987.52 187.49 986.73 186.80Q985.94 186.12 984.59 186.12Q983.18 186.12 982.32 186.92Q981.47 187.73 981.47 189.22L981.47 192.84Q981.47 194.33 982.32 195.14Q983.18 195.96 984.59 195.96Q985.94 195.96 986.73 195.26Q987.52 194.57 987.59 193.32L989.75 193.32Q989.68 195.43 988.28 196.66Q986.87 197.88 984.59 197.88" fill="white" fill-opacity="0.7"/>
<path d="M1004.92 197.64L993.64 197.64L993.64 195.67L998.32 195.67L998.32 186.41L994.12 186.41L994.12 184.44L1000.48 184.44L1000.48 195.67L1004.92 195.67L1004.92 197.64M999.16 182.06Q998.37 182.06 997.91 181.66Q997.46 181.25 997.46 180.55Q997.46 179.83 997.91 179.41Q998.37 178.99 999.16 178.99Q999.95 178.99 1000.41 179.41Q1000.86 179.83 1000.86 180.55Q1000.86 181.25 1000.41 181.66Q999.95 182.06 999.16 182.06" fill="white" fill-opacity="0.7"/>
<path d="M1018.36 197.64L1014.52 197.64Q1012.89 197.64 1011.90 196.69Q1010.92 195.74 1010.92 194.16L1010.92 186.41L1007.13 186.41L1007.13 184.44L1010.92 184.44L1010.92 180.72L1013.08 180.72L1013.08 184.44L1018.48 184.44L1018.48 186.41L1013.08 186.41L1013.08 194.16Q1013.08 194.83 1013.48 195.25Q1013.87 195.67 1014.52 195.67L1018.36 195.67" fill="white" fill-opacity="0.7"/>
<path d="M1033.72 197.64L1022.44 197.64L1022.44 195.67L1027.12 195.67L1027.12 186.41L1022.92 186.41L1022.92 184.44L1029.28 184.44L1029.28 195.67L1033.72 195.67L1033.72 197.64M1027.96 182.06Q1027.17 182.06 1026.71 181.66Q1026.26 181.25 1026.26 180.55Q1026.26 179.83 1026.71 179.41Q1027.17 178.99 1027.96 178.99Q1028.75 178.99 1029.21 179.41Q1029.66 179.83 1029.66 180.55Q1029.66 181.25 1029.21 181.66Q1028.75 182.06 1027.96 182.06" fill="white" fill-opacity="0.7"/>
<path d="M1047.04 197.64L1036.96 197.64L1036.96 195.48L1044.35 186.41L1037.15 186.41L1037.15 184.44L1046.78 184.44L1046.78 186.60L1039.24 195.67L1047.04 195.67" fill="white" fill-opacity="0.7"/>
<path d="M1056.40 197.88Q1054.07 197.88 1052.64 196.48Q1051.22 195.07 1051.22 192.60L1051.22 189.48Q1051.22 187.01 1052.64 185.60Q1054.07 184.20 1056.40 184.20Q1057.96 184.20 1059.12 184.82Q1060.29 185.45 1060.94 186.58Q1061.58 187.70 1061.58 189.24L1061.58 191.59L1053.33 191.59L1053.33 192.84Q1053.33 194.30 1054.17 195.16Q1055.01 196.01 1056.40 196.01Q1057.60 196.01 1058.38 195.54Q1059.16 195.07 1059.33 194.28L1061.49 194.28Q1061.27 195.94 1059.88 196.91Q1058.49 197.88 1056.40 197.88M1053.33 189.24L1053.33 189.91L1059.47 189.91L1059.47 189.24Q1059.47 187.68 1058.67 186.83Q1057.86 185.98 1056.40 185.98Q1054.94 185.98 1054.13 186.83Q1053.33 187.68 1053.33 189.24" fill="white" fill-opacity="0.7"/>
<path d="M1067.97 197.64L1065.81 197.64L1065.81 184.44L1067.97 184.44L1067.97 186.96L1067.99 186.96Q1068.16 185.64 1069.07 184.92Q1069.98 184.20 1071.50 184.20Q1073.49 184.20 1074.66 185.42Q1075.84 186.65 1075.84 188.76L1075.84 197.64L1073.68 197.64L1073.68 189.14Q1073.68 187.63 1072.92 186.83Q1072.17 186.02 1070.87 186.02Q1069.53 186.02 1068.75 186.86Q1067.97 187.70 1067.97 189.24" fill="white" fill-opacity="0.7"/>
<path d="M1085.73 197.83L1084.67 197.83Q1082.46 197.83 1081.25 196.84Q1080.04 195.84 1080.04 194.02L1082.20 194.02Q1082.20 194.93 1082.85 195.44Q1083.50 195.96 1084.67 195.96L1085.73 195.96Q1086.93 195.96 1087.59 195.43Q1088.25 194.90 1088.25 193.94Q1088.25 192.24 1086.69 192.02L1083.04 191.50Q1081.70 191.30 1080.95 190.38Q1080.21 189.46 1080.21 187.94Q1080.21 186.22 1081.40 185.23Q1082.58 184.25 1084.67 184.25L1085.73 184.25Q1087.65 184.25 1088.86 185.20Q1090.07 186.14 1090.17 187.68L1087.98 187.68Q1087.94 186.98 1087.32 186.53Q1086.71 186.07 1085.73 186.07L1084.67 186.07Q1083.57 186.07 1082.94 186.58Q1082.32 187.08 1082.32 187.94Q1082.32 189.34 1083.59 189.53L1087 190.01Q1090.36 190.49 1090.36 193.94Q1090.36 195.79 1089.15 196.81Q1087.94 197.83 1085.73 197.83" fill="white" fill-opacity="0.7"/>
<path d="M1099.60 197.88Q1098.71 197.88 1098.17 197.35Q1097.63 196.82 1097.63 195.98Q1097.63 195.10 1098.17 194.54Q1098.71 193.99 1099.60 193.99Q1100.49 193.99 1101.03 194.54Q1101.57 195.10 1101.57 195.98Q1101.57 196.82 1101.03 197.35Q1100.49 197.88 1099.60 197.88" fill="white" fill-opacity="0.7"/>
<path d="M76.11 136.06L66.42 136.06L84.56 65.98L97.14 65.98L115.18 136.06L105.49 136.06L101.07 117.82L80.53 117.82L76.11 136.06M87.54 88.92L82.45 109.95L99.15 109.95L94.16 89.02Q92.72 83.26 91.86 79.23Q90.99 75.20 90.80 73.76Q90.61 75.20 89.74 79.23Q88.88 83.26 87.54 88.92M137.55 136.06L128.05 136.06L128.05 65.98L150.80 65.98Q157.52 65.98 162.42 68.57Q167.31 71.16 170 75.82Q172.69 80.48 172.69 86.91Q172.69 93.24 170 97.90Q167.31 102.56 162.37 105.15Q157.42 107.74 150.80 107.74L137.55 107.74L137.55 136.06M137.55 74.43L137.55 99.29L150.80 99.29Q156.37 99.29 159.63 95.88Q162.90 92.48 162.90 86.91Q162.90 81.24 159.63 77.84Q156.37 74.43 150.80 74.43L137.55 74.43M225.10 136.06L186.90 136.06L186.90 127.42L201.20 127.42L201.20 74.62L186.90 74.62L186.90 65.98L225.10 65.98L225.10 74.62L210.80 74.62L210.80 127.42L225.10 127.42L225.10 136.06M263.98 137.02Q253.62 137.02 247.47 131.60Q241.33 126.17 241.33 116.67L250.83 116.67Q250.83 122.24 254.38 125.40Q257.94 128.57 263.98 128.57Q269.74 128.57 273.15 125.36Q276.56 122.14 276.56 116.76Q276.56 112.73 274.35 109.71Q272.14 106.68 268.11 105.63L257.74 102.84Q250.93 100.92 246.94 95.88Q242.96 90.84 242.96 83.93Q242.96 78.27 245.50 74Q248.05 69.72 252.66 67.37Q257.26 65.02 263.31 65.02Q269.46 65.02 274.11 67.37Q278.77 69.72 281.36 73.95Q283.95 78.17 283.95 83.74L274.54 83.74Q274.54 79.13 271.42 76.25Q268.30 73.37 263.31 73.37Q258.32 73.37 255.30 76.25Q252.27 79.13 252.27 83.74Q252.27 87.48 254.29 90.03Q256.30 92.57 259.95 93.63L270.61 96.51Q277.81 98.43 281.84 103.85Q285.87 109.28 285.87 116.76Q285.87 122.91 283.18 127.47Q280.50 132.03 275.55 134.52Q270.61 137.02 263.98 137.02M342.51 136.06L301.71 136.06L301.71 65.98L342.51 65.98L342.51 74.52L311.12 74.52L311.12 95.36L339.15 95.36L339.15 103.61L311.12 103.61L311.12 127.52L342.51 127.52L342.51 136.06M383.60 136.06L374.10 136.06L374.10 74.62L355.09 74.62L355.09 65.98L402.51 65.98L402.51 74.62L383.60 74.62L383.60 136.06M436.40 137.02Q426.51 137.02 421.18 131.55Q415.86 126.08 415.86 116.67L415.86 65.98L425.36 65.98L425.36 116.67Q425.36 122.24 428.10 125.40Q430.83 128.57 436.40 128.57Q441.87 128.57 444.70 125.40Q447.54 122.24 447.54 116.67L447.54 65.98L457.04 65.98L457.04 116.67Q457.04 126.17 451.71 131.60Q446.38 137.02 436.40 137.02M551.98 137.02Q542.29 137.02 536.58 131.60Q530.86 126.17 530.86 116.67L530.86 85.28Q530.86 75.87 536.58 70.44Q542.29 65.02 551.98 65.02Q561.58 65.02 567.30 70.49Q573.01 75.96 573.01 85.28L563.50 85.28Q563.50 79.61 560.43 76.54Q557.36 73.47 551.98 73.47Q546.51 73.47 543.44 76.54Q540.37 79.61 540.37 85.28L540.37 116.67Q540.37 122.43 543.44 125.50Q546.51 128.57 551.98 128.57Q557.36 128.57 560.43 125.50Q563.50 122.43 563.50 116.67L563.50 107.55L549.87 107.55L549.87 99.10L573.01 99.10L573.01 116.67Q573.01 126.08 567.30 131.55Q561.58 137.02 551.98 137.02M609.20 137.02Q599.60 137.02 594.03 131.45Q588.46 125.88 588.46 115.71L588.46 86.24Q588.46 76.16 594.03 70.59Q599.60 65.02 609.20 65.02Q618.80 65.02 624.37 70.54Q629.94 76.06 629.94 86.24L629.94 115.71Q629.94 125.88 624.37 131.45Q618.80 137.02 609.20 137.02M609.20 128.57Q614.58 128.57 617.50 125.50Q620.43 122.43 620.43 116.67L620.43 85.28Q620.43 79.61 617.55 76.54Q614.67 73.47 609.20 73.47Q603.73 73.47 600.85 76.54Q597.97 79.61 597.97 85.28L597.97 116.67Q597.97 122.43 600.90 125.50Q603.82 128.57 609.20 128.57M673.14 136.06L660.37 136.06L642.42 65.98L652.21 65.98L663.82 113.21Q664.98 117.72 665.79 121.90Q666.61 126.08 666.99 128.28Q667.28 126.08 668.19 121.85Q669.10 117.63 670.16 113.12L681.39 65.98L691.18 65.98L673.14 136.06M782.77 137.02Q773.07 137.02 767.36 131.60Q761.65 126.17 761.65 116.67L761.65 85.28Q761.65 75.87 767.36 70.44Q773.07 65.02 782.77 65.02Q792.37 65.02 798.08 70.49Q803.79 75.96 803.79 85.28L794.29 85.28Q794.29 79.61 791.22 76.54Q788.14 73.47 782.77 73.47Q777.30 73.47 774.22 76.54Q771.15 79.61 771.15 85.28L771.15 116.67Q771.15 122.43 774.22 125.50Q777.30 128.57 782.77 128.57Q788.14 128.57 791.22 125.50Q794.29 122.43 794.29 116.67L803.79 116.67Q803.79 126.08 798.08 131.55Q792.37 137.02 782.77 137.02M839.98 137.02Q829.62 137.02 823.47 131.60Q817.33 126.17 817.33 116.67L826.83 116.67Q826.83 122.24 830.38 125.40Q833.94 128.57 839.98 128.57Q845.74 128.57 849.15 125.36Q852.56 122.14 852.56 116.76Q852.56 112.73 850.35 109.71Q848.14 106.68 844.11 105.63L833.74 102.84Q826.93 100.92 822.94 95.88Q818.96 90.84 818.96 83.93Q818.96 78.27 821.50 74Q824.05 69.72 828.66 67.37Q833.26 65.02 839.31 65.02Q845.46 65.02 850.11 67.37Q854.77 69.72 857.36 73.95Q859.95 78.17 859.95 83.74L850.54 83.74Q850.54 79.13 847.42 76.25Q844.30 73.37 839.31 73.37Q834.32 73.37 831.30 76.25Q828.27 79.13 828.27 83.74Q828.27 87.48 830.29 90.03Q832.30 92.57 835.95 93.63L846.61 96.51Q853.81 98.43 857.84 103.85Q861.87 109.28 861.87 116.76Q861.87 122.91 859.18 127.47Q856.50 132.03 851.55 134.52Q846.61 137.02 839.98 137.02M897.97 137.02Q888.27 137.02 882.56 131.60Q876.85 126.17 876.85 116.67L876.85 85.28Q876.85 75.87 882.56 70.44Q888.27 65.02 897.97 65.02Q907.57 65.02 913.28 70.49Q918.99 75.96 918.99 85.28L909.49 85.28Q909.49 79.61 906.42 76.54Q903.34 73.47 897.97 73.47Q892.50 73.47 889.42 76.54Q886.35 79.61 886.35 85.28L886.35 116.67Q886.35 122.43 889.42 125.50Q892.50 128.57 897.97 128.57Q903.34 128.57 906.42 125.50Q909.49 122.43 909.49 116.67L918.99 116.67Q918.99 126.08 913.28 131.55Q907.57 137.02 897.97 137.02" fill="url(#paint2_linear_0_1)"/>
<g id="Group 1">
<rect id="Rectangle 1" x="26" y="168" width="12" height="184" rx="5" fill="url(#paint3_linear_0_1)" fill-opacity="0.9"/>
</g>
<g id="Group 1_2">
<rect id="Rectangle 2" x="26" y="38" width="12" height="119" rx="5" fill="url(#paint4_linear_0_1)" fill-opacity="0.9"/>
</g>
<ellipse id="Ellipse 1" cx="148.5" cy="573" rx="215.5" ry="214" fill="url(#paint5_linear_0_1)" fill-opacity="0.4"/>
<rect id="Rectangle 3" x="1229" y="48" width="300" height="300" rx="25" fill="#FFFBFB" fill-opacity="0.9"/>
<g id="placeholder-logo"><g transform="translate(1229,48) translate(0.0,60.0) scale(1.2000)"><g fill="#666666">
  <path d="m88.05,27.65c-3.15,4 -3.2,51.2 -0.05,54.35c2.75,2.75 71.7,3.15 74.45,0.45c2.85,-2.9 2.3,-53.85 -0.65,-55.9c-1.95,-1.35 -7.15,-1.55 -36.95,-1.55l-34.7,0l-2.1,2.65zm69.45,3.35c0.65,0 1,8.6 1,23.75l0,23.75l-33,0l-33,0l-0.25,-23c-0.15,-12.6 -0.1,-23.45 0.15,-24.1c0.35,-0.85 8.9,-1.05 32.25,-0.75c17.55,0.2 32.3,0.35 32.85,0.35z"/>
  <path d="m99.15,37.3c-6.85,7.35 4.25,17.35 11.4,10.25c1.35,-1.35 2.45,-3.65 2.45,-5.05c0,-6.45 -9.35,-9.95 -13.85,-5.2z"/>
  <path d="m135,42.5c-0.7,0.85 -5.25,5.15 -10.1,9.6l-8.85,8.1l-3.2,-3.2l-3.15,-3.15l-6.35,6.3c-5.55,5.5 -6.35,6.75 -6.35,10.05l0,3.8l28.5,0l28.5,0l0,-8.6l0,-8.55l-8.15,-7.7c-9.35,-8.85 -9.15,-8.7 -10.85,-6.65zm7.25,15.2c0.95,0.9 1.75,2.9 1.75,4.45c6.35,-5.05 4.75,-7.15 4.9,-11.55c0.95,0 0,0 0,0l-6.65,7.1z"/>
  <path d="m53.65,110.75c0.1,4.8 0.45,8.65 0.75,8.5c0.35,-0.15 1.3,-0.25 2.1,-0.25c1.1,0 1.5,-1.2 1.5,-4.75l0,-4.75l3.25,5c4.9,7.5 6.2,6.75 6.55,-3.75c0.25,-8.15 0.15,-8.75 -1.7,-8.75c-1.65,0 -2.05,0.8 -2.3,4.75l-0.3,4.75l-2.8,-4.75c-4.85,-8.25 -7.25,-6.9 -7.05,4z"/>
  <path d="m91,108.9c0,9.65 0.3,10.1 6.1,10.1c5.8,0 7.15,-2.65 1.65,-3.2l-3.25,-0.3l-0.3,-6.75c-0.25,-5.95 -0.55,-6.75 -2.25,-6.75c-1.75,0 -1.95,0.7 -1.95,6.9z"/>
  <path d="m151,102.45c0,0.25 1,2.15 2.25,4.2c1.2,2.1 2.45,5.8 2.75,8.25c0.65,5.9 4,6.95 4,1.25c0.05,-2.1 1.25,-5.85 2.95,-8.9l2.9,-5.25l-2.5,0c-1.8,0 -2.8,0.85 -3.75,3.1l-1.3,3.05l-1.25,-3.05c-1.1,-2.6 -6.05,-4.8 -6.05,-2.65z"/>
  <path d="m191,107.45c0,9.05 3.4,8.85 4.25,-0.2c0.45,-5 0.35,-5.25 -1.9,-5.25c-2.2,0 -2.35,0.4 -2.35,5.45z"/>
  <path d="m180.8,104.75c-1.3,5.35 0.65,13.6 3.45,14.35c2.3,0.6 2.75,0.4 2.75,-1.2c0,-1.05 -0.45,-1.9 -1,-1.9c-0.55,0 -1,-1.6 -1,-3.5c0,-1.95 0.45,-3.5 1,-3.5c0.55,0 1,-0.7 1,-1.5c0,-0.85 -0.45,-1.5 -1,-1.5c-0.55,0 -1,-0.7 -1,-1.5c0,-2.1 -3.65,-1.9 -4.2,0.25z"/>
  <path d="m71.55,106.55c-2.2,2.25 -2.05,9.7 0.3,11.8c4.5,4.1 10.15,0.75 10.15,-6.1c0,-4.85 -2,-7.25 -6,-7.25c-1.55,0 -3.55,0.7 -4.45,1.55zm6.25,5.8c0.25,3.05 0,3.65 -1.6,3.65c-2.3,0 -3.25,-2.65 -2.05,-5.85c1.25,-3.35 3.3,-2.1 3.65,2.2z"/>
  <path d="m105.75,106.1c-2.5,1.45 -2.45,9.95 0.1,12.25c4.3,3.9 10.15,0.35 10.15,-6.2c0,-6 -5.15,-9.05 -10.25,-6.05zm6.05,6.25c0.25,3.05 0,3.65 -1.6,3.65c-2.3,0 -3.25,-2.65 -2.05,-5.85c1.25,-3.35 3.3,-2.1 3.65,2.2z"/>
  <path d="m119.2,106.2c-3.8,3.8 -0.4,12.55 4.4,11.35c1.9,-0.45 2.45,-0.3 2.15,0.65c-0.25,0.7 -1.55,1.2 -2.85,1.1c-4.05,-0.3 -5.35,0.45 -3.85,2.25c0.85,1.05 2.6,1.45 5.35,1.25l4.1,-0.3l0.3,-8.75l0.3,-8.75l-4.35,0c-2.4,0 -4.9,0.55 -5.55,1.2zm6.6,4.45c0.4,2.85 -2.15,4.85 -3.75,2.95c-0.9,-1.1 -0.9,-2 -0.05,-3.6c1.35,-2.5 3.4,-2.15 3.8,0.65z"/>
  <path d="m133.55,106.55c-2.2,2.25 -2.05,9.7 0.3,11.8c4.5,4.1 10.15,0.75 10.15,-6.1c0,-4.85 -2,-7.25 -6,-7.25c-1.55,0 -3.55,0.7 -4.45,1.55zm6.25,5.8c0.25,3.05 0,3.65 -1.6,3.65c-2.3,0 -3.25,-2.65 -2.05,-5.85c1.25,-3.35 3.3,-2.1 3.65,2.2z"/>
  <path d="m167.65,106.85c-3.9,4.3 -0.75,13.15 4.7,13.15c2.4,0 5.65,-2.75 5.65,-4.85c0,-1.4 -2.65,-1.55 -3.5,-0.15c-0.95,1.55 -4.5,1.15 -4.5,-0.5c0,-1.1 1.1,-1.5 4,-1.5c3.15,0 4,-0.35 4,-1.8c0,-5.3 -6.85,-8.25 -10.35,-4.35z"/>
  <path d="m191,117.5c0,2.15 0.4,2.6 2.25,2.3c1.5,-0.2 2.25,-1 2.25,-2.3c0,-1.3 -0.75,-2.1 -2.25,-2.3c-1.85,-0.3 -2.25,0.15 -2.25,2.3z"/>
 </g></g></g>
</g>
<defs>
<linearGradient id="paint0_linear_0_1" x1="0" y1="198" x2="1584" y2="198" gradientUnits="userSpaceOnUse">
<stop stop-color="#3D052C"/>
<stop offset="1"/>
</linearGradient>
<linearGradient id="paint1_linear_0_1" x1="323" y1="-224" x2="323" y2="352" gradientUnits="userSpaceOnUse">
<stop stop-color="#28F6F2" stop-opacity="0.4"/>
<stop offset="1" stop-color="#17908E" stop-opacity="0.7"/>
</linearGradient>
<linearGradient id="paint2_linear_0_1" x1="148.5" y1="38" x2="148.5" y2="140" gradientUnits="userSpaceOnUse">
<stop stop-color="white"/>
<stop offset="1" stop-color="#999999"/>
</linearGradient>
<linearGradient id="paint3_linear_0_1" x1="38" y1="260" x2="26" y2="260" gradientUnits="userSpaceOnUse">
<stop stop-color="#D9D9D9"/>
<stop offset="1" stop-color="#737373"/>
</linearGradient>
<linearGradient id="paint4_linear_0_1" x1="38" y1="97.5" x2="26" y2="97.5" gradientUnits="userSpaceOnUse">
<stop stop-color="#D9D9D9"/>
<stop offset="1" stop-color="#737373"/>
</linearGradient>
<linearGradient id="paint5_linear_0_1" x1="27.5" y1="434.5" x2="148.5" y2="787" gradientUnits="userSpaceOnUse">
<stop stop-color="#2E21BC"/>
<stop offset="1" stop-color="#150F56"/>
</linearGradient>
<clipPath id="clip0_0_1">
<rect width="1584" height="396" fill="white"/>
</clipPath>
</defs>
</svg>
